<mxfile host="Electron" modified="2024-05-08T17:40:25.369Z" agent="Mozilla/5.0 (Macintosh; Intel Mac OS X 10_15_7) AppleWebKit/537.36 (KHTML, like Gecko) draw.io/24.2.5 Chrome/120.0.6099.109 Electron/28.1.0 Safari/537.36" etag="oPs78jVNQarJKCsj20kr" version="24.2.5" type="device">
  <diagram name="Page-1" id="Y3Kv6mHiLJJ6sF6eyjEa">
    <mxGraphModel dx="1412" dy="1103" grid="0" gridSize="10" guides="1" tooltips="1" connect="1" arrows="1" fold="1" page="0" pageScale="1" pageWidth="850" pageHeight="1100" math="0" shadow="0">
      <root>
        <mxCell id="0" />
        <mxCell id="1" parent="0" />
        <mxCell id="KXbEhKhHQBF3EZcO7EH--1" value="&lt;font style=&quot;font-size: 24px;&quot;&gt;&lt;b&gt;msk&lt;/b&gt;&lt;/font&gt;" style="text;html=1;align=center;verticalAlign=middle;whiteSpace=wrap;rounded=0;fontSize=17;" vertex="1" parent="1">
          <mxGeometry x="-118" y="-110" width="60" height="30" as="geometry" />
        </mxCell>
        <mxCell id="KXbEhKhHQBF3EZcO7EH--2" value="&lt;h1 style=&quot;margin-top: 0px;&quot;&gt;gnuradio&lt;/h1&gt;&lt;div&gt;Contains source files for gnuradio msk modulator and demodulator.&lt;/div&gt;" style="text;html=1;whiteSpace=wrap;overflow=hidden;rounded=0;" vertex="1" parent="1">
          <mxGeometry x="-26" y="-23" width="180" height="120" as="geometry" />
        </mxCell>
        <mxCell id="KXbEhKhHQBF3EZcO7EH--3" value="&lt;h1 style=&quot;margin-top: 0px;&quot;&gt;docs&lt;/h1&gt;&lt;div&gt;Contains RTL design documentation and diagrams.&lt;/div&gt;" style="text;html=1;whiteSpace=wrap;overflow=hidden;rounded=0;" vertex="1" parent="1">
          <mxGeometry x="-26" y="97" width="180" height="120" as="geometry" />
        </mxCell>
        <mxCell id="KXbEhKhHQBF3EZcO7EH--4" value="&lt;h1 style=&quot;margin-top: 0px;&quot;&gt;&lt;span style=&quot;background-color: initial;&quot;&gt;sim&lt;/span&gt;&lt;/h1&gt;&lt;div&gt;&lt;span style=&quot;background-color: initial;&quot;&gt;Contains simulation configurations and scripts.&lt;/span&gt;&lt;/div&gt;" style="text;html=1;whiteSpace=wrap;overflow=hidden;rounded=0;" vertex="1" parent="1">
          <mxGeometry x="-26" y="210" width="180" height="120" as="geometry" />
        </mxCell>
        <mxCell id="KXbEhKhHQBF3EZcO7EH--5" value="&lt;h1 style=&quot;margin-top: 0px;&quot;&gt;&lt;span style=&quot;background-color: initial;&quot;&gt;src&lt;/span&gt;&lt;/h1&gt;&lt;div&gt;&lt;span style=&quot;background-color: initial;&quot;&gt;Contains RTL sources.&lt;/span&gt;&lt;/div&gt;" style="text;html=1;whiteSpace=wrap;overflow=hidden;rounded=0;" vertex="1" parent="1">
          <mxGeometry x="-26" y="321" width="180" height="120" as="geometry" />
        </mxCell>
        <mxCell id="KXbEhKhHQBF3EZcO7EH--16" value="" style="edgeStyle=segmentEdgeStyle;endArrow=classic;html=1;curved=0;rounded=0;endSize=8;startSize=8;fontSize=12;entryX=-0.011;entryY=0.163;entryDx=0;entryDy=0;entryPerimeter=0;" edge="1" parent="1" source="KXbEhKhHQBF3EZcO7EH--1" target="KXbEhKhHQBF3EZcO7EH--2">
          <mxGeometry width="50" height="50" relative="1" as="geometry">
            <mxPoint x="-67" y="-64" as="sourcePoint" />
            <mxPoint x="-108" y="9" as="targetPoint" />
            <Array as="points">
              <mxPoint x="-88" y="-3" />
            </Array>
          </mxGeometry>
        </mxCell>
        <mxCell id="KXbEhKhHQBF3EZcO7EH--20" value="" style="edgeStyle=segmentEdgeStyle;endArrow=classic;html=1;curved=0;rounded=0;endSize=8;startSize=8;fontSize=12;entryX=-0.017;entryY=0.196;entryDx=0;entryDy=0;entryPerimeter=0;" edge="1" parent="1" source="KXbEhKhHQBF3EZcO7EH--1" target="KXbEhKhHQBF3EZcO7EH--3">
          <mxGeometry width="50" height="50" relative="1" as="geometry">
            <mxPoint x="-87" y="44" as="sourcePoint" />
            <mxPoint x="-50" y="121" as="targetPoint" />
            <Array as="points">
              <mxPoint x="-87" y="121" />
            </Array>
          </mxGeometry>
        </mxCell>
        <mxCell id="KXbEhKhHQBF3EZcO7EH--21" value="" style="edgeStyle=segmentEdgeStyle;endArrow=classic;html=1;curved=0;rounded=0;endSize=8;startSize=8;fontSize=12;entryX=-0.011;entryY=0.154;entryDx=0;entryDy=0;entryPerimeter=0;exitX=0.5;exitY=1;exitDx=0;exitDy=0;" edge="1" parent="1" source="KXbEhKhHQBF3EZcO7EH--1" target="KXbEhKhHQBF3EZcO7EH--4">
          <mxGeometry width="50" height="50" relative="1" as="geometry">
            <mxPoint x="-88" y="129" as="sourcePoint" />
            <mxPoint x="-30" y="206" as="targetPoint" />
            <Array as="points">
              <mxPoint x="-88" y="229" />
            </Array>
          </mxGeometry>
        </mxCell>
        <mxCell id="KXbEhKhHQBF3EZcO7EH--22" value="" style="edgeStyle=segmentEdgeStyle;endArrow=classic;html=1;curved=0;rounded=0;endSize=8;startSize=8;fontSize=12;entryX=0;entryY=0.196;entryDx=0;entryDy=0;entryPerimeter=0;exitX=0.5;exitY=1;exitDx=0;exitDy=0;" edge="1" parent="1" source="KXbEhKhHQBF3EZcO7EH--1" target="KXbEhKhHQBF3EZcO7EH--5">
          <mxGeometry width="50" height="50" relative="1" as="geometry">
            <mxPoint x="-93" y="269" as="sourcePoint" />
            <mxPoint x="-35" y="346" as="targetPoint" />
            <Array as="points">
              <mxPoint x="-88" y="345" />
            </Array>
          </mxGeometry>
        </mxCell>
      </root>
    </mxGraphModel>
  </diagram>
</mxfile>
